<svg width="160.000000" height="20.000000" viewBox="0 0 160 20" fill="none" xmlns="http://www.w3.org/2000/svg" xmlns:xlink="http://www.w3.org/1999/xlink">
	<rect id="logo" width="160.000000" height="20.000000" fill="#FFFFFF" fill-opacity="0"/>
	<path id="logo" d="M115.67 1.04C114.33 0.34 112.76 0 110.95 0Q108.24 0 106.23 1.04C104.89 1.74 103.85 2.78 103.11 4.14Q101.99 6.18 101.99 9.08L101.99 19.66L106.46 19.66L106.46 15.02L115.39 15.02L115.39 19.66L119.92 19.66L119.92 9.08C119.92 7.15 119.55 5.5 118.8 4.14C118.06 2.78 117.01 1.74 115.67 1.04ZM156.48 19.47C157.89 19.12 159.06 18.63 160 18.01L158.6 14.64C157.8 15.19 156.82 15.62 155.67 15.93C154.51 16.23 153.36 16.38 152.2 16.38C150.57 16.38 149.35 16.16 148.54 15.74C147.76 15.3 147.37 14.69 147.37 13.92C147.37 13.18 147.68 12.62 148.29 12.23C148.91 11.85 149.78 11.65 150.92 11.65L156.53 11.65L156.53 8.12L151.2 8.12C150.19 8.12 149.44 7.94 148.94 7.59C148.45 7.22 148.21 6.7 148.21 6.02Q148.21 5.61 148.36 5.27Q148.61 4.68 149.3 4.28Q150.42 3.61 152.59 3.61C154.51 3.61 156.33 4.01 158.04 4.8L159.3 1.38C158.4 0.95 157.35 0.62 156.14 0.38C154.93 0.12 153.69 0 152.43 0C150.51 0 148.89 0.25 147.57 0.77C146.25 1.28 145.26 1.97 144.61 2.84C143.96 3.71 143.63 4.66 143.63 5.71C143.63 6.58 143.83 7.36 144.24 8.06C144.67 8.76 145.27 9.31 146.03 9.72C145.03 10.11 144.23 10.69 143.66 11.49C143.08 12.28 142.79 13.19 142.79 14.22C142.79 15.34 143.14 16.35 143.85 17.23C144.56 18.1 145.6 18.78 146.98 19.28C148.36 19.76 150.03 20 152.01 20C153.59 20 155.08 19.82 156.48 19.47ZM29.24 0.33L29.24 11.74Q29.24 15.38 27.43 17.47Q27.24 17.69 27.03 17.9Q26.93 17.99 26.83 18.07L26.83 18.07Q24.65 20 20.77 20Q18.76 20 17.17 19.41Q15.61 18.83 14.6 17.79Q13.57 18.83 12 19.41Q10.44 20 8.46 20Q4.58 20 2.4 18.07L2.39 18.07Q2.3 17.99 2.2 17.9Q1.99 17.69 1.8 17.47Q0 15.38 0 11.74L0 0.33L4.52 0.33L4.52 11.6Q4.52 13.95 5.5 15.08Q5.63 15.23 5.78 15.36L5.78 15.36L5.78 15.36Q6.74 16.18 8.4 16.18Q10.07 16.18 11.03 15.36Q12.34 14.24 12.34 11.6L12.34 0.33L16.86 0.33L16.86 11.6Q16.86 14.22 18.16 15.34L18.16 15.34Q19.13 16.18 20.83 16.18Q22.42 16.18 23.36 15.4Q24.68 14.28 24.68 11.6L24.68 0.33L29.24 0.33ZM97.68 0.33L97.68 11.74C97.68 14.42 96.95 16.48 95.48 17.9Q95.38 17.99 95.28 18.07Q93.09 20 89.22 20Q87.21 20 85.62 19.41C84.57 19.03 83.72 18.48 83.05 17.79C82.36 18.48 81.49 19.03 80.45 19.41C79.41 19.8 78.23 20 76.9 20C74.2 20 72.12 19.3 70.65 17.9Q70.44 17.69 70.25 17.47L70.25 17.47Q68.44 15.38 68.44 11.74L68.44 0.33L72.97 0.33L72.97 11.6C72.97 13.16 73.29 14.32 73.94 15.08C74.59 15.81 75.56 16.18 76.85 16.18C79.47 16.18 80.79 14.65 80.79 11.6L80.79 0.33L85.31 0.33L85.31 11.6C85.31 14.65 86.63 16.18 89.28 16.18Q90.87 16.18 91.81 15.4Q93.13 14.28 93.13 11.6L93.13 0.33L97.68 0.33ZM142.63 0.33L134.17 19.66L129.7 19.66L121.27 0.33L126.16 0.33L132.1 14.14L138.14 0.33L142.63 0.33ZM115.39 8.67L115.39 11.43L106.46 11.43L106.46 8.67C106.46 7.07 106.85 5.86 107.63 5.05C108.43 4.22 109.53 3.81 110.92 3.81C112.3 3.81 113.39 4.22 114.19 5.05C114.99 5.86 115.39 7.07 115.39 8.67Z" fill="#292E39" fill-opacity="1.000000" fill-rule="evenodd"/>
	<path id="logo" d="M56.82 11.2L33.54 11.2L33.54 7.82L56.82 7.82L52.7 3.67L55.06 1.29L63.22 9.51L55.06 17.74L52.7 15.35L56.82 11.2Z" fill="#6D31EE" fill-opacity="1.000000" fill-rule="evenodd"/>
</svg>
